solid OBJECT
  facet normal 0.99581966446794368 -3.1248323009418003e-07 0.091341096221000853
    outer loop
      vertex 0.019999995827674866 0.13750000298023224 -6.6211742932864581e-07
      vertex 0.019666099920868874 0.13749998807907104 0.0036395406350493431
      vertex 0.019666099920868874 0.062499992549419403 0.0036392840556800365
    endloop
  endfacet
  facet normal 0.9958196645864662 -3.1254646950960983e-07 0.091341094928843652
    outer loop
      vertex 0.019999995827674866 0.13750000298023224 -6.6211742932864581e-07
      vertex 0.019666099920868874 0.062499992549419403 0.0036392840556800365
      vertex 0.019999995827674866 0.0625 -9.1874875352004892e-07
    endloop
  endfacet
  facet normal 0.96106325926257619 -9.6920404402175713e-07 0.27632844894193387
    outer loop
      vertex 0.019666099920868874 0.13749998807907104 0.0036395406350493431
      vertex 0.018595755100250244 0.13749997317790985 0.0073621724732220173
      vertex 0.018595753237605095 0.062499977648258209 0.0073619158938527107
    endloop
  endfacet
  facet normal 0.96106313155699152 -9.4533729784466958e-07 0.27632889309837921
    outer loop
      vertex 0.019666099920868874 0.13749998807907104 0.0036395406350493431
      vertex 0.018595753237605095 0.062499977648258209 0.0073619158938527107
      vertex 0.019666099920868874 0.062499992549419403 0.0036392840556800365
    endloop
  endfacet
  facet normal 0.91017870045388649 -1.4422327376496973e-06 0.41421580515233153
    outer loop
      vertex 0.018595755100250244 0.13749997317790985 0.0073621724732220173
      vertex 0.017765667289495468 0.13749997317790985 0.0091861691325902939
      vertex 0.017765665426850319 0.062499973922967911 0.0091859120875597
    endloop
  endfacet
  facet normal 0.91017866058683472 -1.4396613176337307e-06 0.41421589275434995
    outer loop
      vertex 0.018595755100250244 0.13749997317790985 0.0073621724732220173
      vertex 0.017765665426850319 0.062499973922967911 0.0091859120875597
      vertex 0.018595753237605095 0.062499977648258209 0.0073619158938527107
    endloop
  endfacet
  facet normal 0.86375842372102118 -1.7422150745692062e-06 0.50390612761499687
    outer loop
      vertex 0.017765667289495468 0.13749997317790985 0.0091861691325902939
      vertex 0.016739895567297935 0.13749997317790985 0.010944470763206482
      vertex 0.016739893704652786 0.062499966472387314 0.010944214649498463
    endloop
  endfacet
  facet normal 0.86375853989532769 -1.7484718901220271e-06 0.50390592847756266
    outer loop
      vertex 0.017765667289495468 0.13749997317790985 0.0091861691325902939
      vertex 0.016739893704652786 0.062499966472387314 0.010944214649498463
      vertex 0.017765665426850319 0.062499973922967911 0.0091859120875597
    endloop
  endfacet
  facet normal 0.80774278844514513 -2.0232037464783765e-06 0.58953506062894012
    outer loop
      vertex 0.016739895567297935 0.13749997317790985 0.010944470763206482
      vertex 0.015527047216892242 0.13749995827674866 0.012606237083673477
      vertex 0.015527046285569668 0.062499959021806717 0.012605980969965458
    endloop
  endfacet
  facet normal 0.80774300400967869 -2.0332327959401646e-06 0.5895347652762184
    outer loop
      vertex 0.016739895567297935 0.13749997317790985 0.010944470763206482
      vertex 0.015527046285569668 0.062499959021806717 0.012605980969965458
      vertex 0.016739893704652786 0.062499966472387314 0.010944214649498463
    endloop
  endfacet
  facet normal 0.74272288969795486 -2.3041170897388945e-06 0.6695989166011328
    outer loop
      vertex 0.015527047216892242 0.13749995827674866 0.012606237083673477
      vertex 0.014142117463052273 0.13749995827674866 0.014142408967018127
      vertex 0.014142116531729698 0.062499955296516418 0.014142151921987534
    endloop
  endfacet
  facet normal 0.74272268780979822 -2.2958031318089623e-06 0.66959914053657366
    outer loop
      vertex 0.015527047216892242 0.13749995827674866 0.012606237083673477
      vertex 0.014142116531729698 0.062499955296516418 0.014142151921987534
      vertex 0.015527046285569668 0.062499959021806717 0.012605980969965458
    endloop
  endfacet
  facet normal 0.66959725122179092 -2.5446070631223281e-06 0.74272439111001787
    outer loop
      vertex 0.014142117463052273 0.13749995827674866 0.014142408967018127
      vertex 0.012605942785739899 0.13749994337558746 0.015527334995567799
      vertex 0.012605941854417324 0.06249995157122612 0.015527078881859779
    endloop
  endfacet
  facet normal 0.6695974996063131 -2.5538287990945344e-06 0.7427241671808259
    outer loop
      vertex 0.014142117463052273 0.13749995827674866 0.014142408967018127
      vertex 0.012605941854417324 0.06249995157122612 0.015527078881859779
      vertex 0.014142116531729698 0.062499955296516418 0.014142151921987534
    endloop
  endfacet
  facet normal 0.5895329371382666 -2.7556157963039811e-06 0.80774433827884884
    outer loop
      vertex 0.012605942785739899 0.13749994337558746 0.015527334995567799
      vertex 0.01094417367130518 0.13749994337558746 0.016740178689360619
      vertex 0.010944172739982605 0.062499947845935822 0.016739923506975174
    endloop
  endfacet
  facet normal 0.58953323250186129 -2.7656454756198051e-06 0.80774412270734453
    outer loop
      vertex 0.012605942785739899 0.13749994337558746 0.015527334995567799
      vertex 0.010944172739982605 0.062499947845935822 0.016739923506975174
      vertex 0.012605941854417324 0.06249995157122612 0.015527078881859779
    endloop
  endfacet
  facet normal 0.50390416486803957 -2.9451403563284381e-06 0.86375956875740034
    outer loop
      vertex 0.01094417367130518 0.13749994337558746 0.016740178689360619
      vertex 0.0091858692467212677 0.13749994337558746 0.017765946686267853
      vertex 0.0091858683153986931 0.062499944120645523 0.017765691503882408
    endloop
  endfacet
  facet normal 0.50390416487269474 -2.9451405026059667e-06 0.86375956875468407
    outer loop
      vertex 0.01094417367130518 0.13749994337558746 0.016740178689360619
      vertex 0.0091858683153986931 0.062499944120645523 0.017765691503882408
      vertex 0.010944172739982605 0.062499947845935822 0.016739923506975174
    endloop
  endfacet
  facet normal 0.41421382714458099 -3.1245720088581323e-06 0.91017960062422631
    outer loop
      vertex 0.0091858692467212677 0.13749994337558746 0.017765946686267853
      vertex 0.0073618702590465546 0.13749994337558746 0.01859603077173233
      vertex 0.0073618693277239799 0.062499940395355225 0.018595773726701736
    endloop
  endfacet
  facet normal 0.41421305715632745 -3.101968791623302e-06 0.91017995103802796
    outer loop
      vertex 0.0091858692467212677 0.13749994337558746 0.017765946686267853
      vertex 0.0073618693277239799 0.062499940395355225 0.018595773726701736
      vertex 0.0091858683153986931 0.062499944120645523 0.017765691503882408
    endloop
  endfacet
  facet normal 0.27632644883372626 -3.2972534619854426e-06 0.96106383433363574
    outer loop
      vertex 0.0073618702590465546 0.13749994337558746 0.01859603077173233
      vertex 0.0036392351612448692 0.13749994337558746 0.019666368141770363
      vertex 0.0036392342299222946 0.062499936670064926 0.019666111096739769
    endloop
  endfacet
  facet normal 0.27632644883677399 -3.2972536257588221e-06 0.96106383433275966
    outer loop
      vertex 0.0073618702590465546 0.13749994337558746 0.01859603077173233
      vertex 0.0036392342299222946 0.062499936670064926 0.019666111096739769
      vertex 0.0073618693277239799 0.062499940395355225 0.018595773726701736
    endloop
  endfacet
  facet normal 0.091362482833662426 -3.4141190673642431e-06 0.9958177025534406
    outer loop
      vertex 0.0036392351612448692 0.13749994337558746 0.019666368141770363
      vertex -2.7095273580357571e-08 0.13749992847442627 0.020000256597995758
      vertex -2.8068432911254604e-08 0.062499936670064926 0.019999999552965164
    endloop
  endfacet
  facet normal 0.09136248177826875 -3.4140674252307296e-06 0.99581770265026903
    outer loop
      vertex 0.0036392351612448692 0.13749994337558746 0.019666368141770363
      vertex -2.8068432911254604e-08 0.062499936670064926 0.019999999552965164
      vertex 0.0036392342299222946 0.062499936670064926 0.019666111096739769
    endloop
  endfacet
  facet normal -0.091364520451889822 -3.4117977472929989e-06 0.99581751560763165
    outer loop
      vertex -2.7095273580357571e-08 0.13749992847442627 0.020000256597995758
      vertex -0.0036392887122929096 0.13749994337558746 0.019666360691189766
      vertex -0.0036392896436154842 0.062499936670064926 0.019666103646159172
    endloop
  endfacet
  facet normal -0.09136452147959076 -3.4117474595445691e-06 0.99581751551334208
    outer loop
      vertex -2.7095273580357571e-08 0.13749992847442627 0.020000256597995758
      vertex -0.0036392896436154842 0.062499936670064926 0.019666103646159172
      vertex -2.8068432911254604e-08 0.062499936670064926 0.019999999552965164
    endloop
  endfacet
  facet normal -0.27632882924768409 -3.2886729340709532e-06 0.96106314991044628
    outer loop
      vertex -0.0036392887122929096 0.13749994337558746 0.019666360691189766
      vertex -0.0073619214817881584 0.13749994337558746 0.018596014007925987
      vertex -0.0073619228787720203 0.062499940395355225 0.018595756962895393
    endloop
  endfacet
  facet normal -0.27632879732432469 -3.2903884775997577e-06 0.96106315908917528
    outer loop
      vertex -0.0036392887122929096 0.13749994337558746 0.019666360691189766
      vertex -0.0073619228787720203 0.062499940395355225 0.018595756962895393
      vertex -0.0036392896436154842 0.062499936670064926 0.019666103646159172
    endloop
  endfacet
  facet normal -0.41421571754633418 -3.1142820803051353e-06 0.91017874031855783
    outer loop
      vertex -0.0073619214817881584 0.13749994337558746 0.018596014007925987
      vertex -0.0091859186068177223 0.13749994337558746 0.017765926197171211
      vertex -0.0091859195381402969 0.062499944120645523 0.017765669152140617
    endloop
  endfacet
  facet normal -0.4142158051560218 -3.1117099977837303e-06 0.91017870044803051
    outer loop
      vertex -0.0073619214817881584 0.13749994337558746 0.018596014007925987
      vertex -0.0091859195381402969 0.062499944120645523 0.017765669152140617
      vertex -0.0073619228787720203 0.062499940395355225 0.018595756962895393
    endloop
  endfacet
  facet normal -0.50390572934989142 -2.954074461297881e-06 0.86375865606060798
    outer loop
      vertex -0.0091859186068177223 0.13749994337558746 0.017765926197171211
      vertex -0.01094422210007906 0.13749994337558746 0.016740154474973679
      vertex -0.010944223031401634 0.062499947845935822 0.016739897429943085
    endloop
  endfacet
  facet normal -0.50390572935456091 -2.9540743145580194e-06 0.86375865605788371
    outer loop
      vertex -0.0091859186068177223 0.13749994337558746 0.017765926197171211
      vertex -0.010944223031401634 0.062499947845935822 0.016739897429943085
      vertex -0.0091859195381402969 0.062499944120645523 0.017765669152140617
    endloop
  endfacet
  facet normal -0.58953506063973649 -2.7610299344423641e-06 0.80774278843508029
    outer loop
      vertex -0.01094422210007906 0.13749994337558746 0.016740154474973679
      vertex -0.012605988420546055 0.13749994337558746 0.015527306124567986
      vertex -0.012605989351868629 0.06249995157122612 0.015527049079537392
    endloop
  endfacet
  facet normal -0.58953506064377492 -2.7610297972903641e-06 0.80774278843213287
    outer loop
      vertex -0.01094422210007906 0.13749994337558746 0.016740154474973679
      vertex -0.012605989351868629 0.06249995157122612 0.015527049079537392
      vertex -0.010944223031401634 0.062499947845935822 0.016739897429943085
    endloop
  endfacet
  facet normal -0.66959916500798089 -2.5279711413618152e-06 0.7427226657469288
    outer loop
      vertex -0.012605988420546055 0.13749994337558746 0.015527306124567986
      vertex -0.014142160303890705 0.13749995827674866 0.014142375439405441
      vertex -0.01414216123521328 0.062499955296516418 0.014142119325697422
    endloop
  endfacet
  facet normal -0.66959891660414916 -2.5371951481499831e-06 0.74272288969447586
    outer loop
      vertex -0.012605988420546055 0.13749994337558746 0.015527306124567986
      vertex -0.01414216123521328 0.062499955296516418 0.014142119325697422
      vertex -0.012605989351868629 0.06249995157122612 0.015527049079537392
    endloop
  endfacet
  facet normal -0.74272416718440204 -2.2773517922264416e-06 0.66959749960334403
    outer loop
      vertex -0.014142160303890705 0.13749995827674866 0.014142375439405441
      vertex -0.015527087263762951 0.13749995827674866 0.012606200762093067
      vertex -0.015527088195085526 0.062499959021806717 0.012605944648385048
    endloop
  endfacet
  facet normal -0.74272416718714862 -2.2773516790987214e-06 0.66959749960029746
    outer loop
      vertex -0.014142160303890705 0.13749995827674866 0.014142375439405441
      vertex -0.015527088195085526 0.062499959021806717 0.012605944648385048
      vertex -0.01414216123521328 0.062499955296516418 0.014142119325697422
    endloop
  endfacet
  facet normal -0.80774374981858243 -2.0004288762788082e-06 0.5895337434150939
    outer loop
      vertex -0.015527087263762951 0.13749995827674866 0.012606200762093067
      vertex -0.01673993282020092 0.13749997317790985 0.010944432578980923
      vertex -0.016739934682846069 0.062499966472387314 0.010944175533950329
    endloop
  endfacet
  facet normal -0.80774369157900405 -2.0031390003125013e-06 0.58953382321145065
    outer loop
      vertex -0.015527087263762951 0.13749995827674866 0.012606200762093067
      vertex -0.016739934682846069 0.062499966472387314 0.010944175533950329
      vertex -0.015527088195085526 0.062499959021806717 0.012605944648385048
    endloop
  endfacet
  facet normal -0.86375956875988991 -1.7055624690019833e-06 0.50390416486949197
    outer loop
      vertex -0.01673993282020092 0.13749997317790985 0.010944432578980923
      vertex -0.017765700817108154 0.13749997317790985 0.0091861281543970108
      vertex -0.017765702679753304 0.062499973922967911 0.0091858711093664169
    endloop
  endfacet
  facet normal -0.8637595687630355 -1.7055622995510319e-06 0.50390416486409995
    outer loop
      vertex -0.01673993282020092 0.13749997317790985 0.010944432578980923
      vertex -0.017765702679753304 0.062499973922967911 0.0091858711093664169
      vertex -0.016739934682846069 0.062499966472387314 0.010944175533950329
    endloop
  endfacet
  facet normal -0.91017960062778447 -1.3944451619046354e-06 0.41421382714620025
    outer loop
      vertex -0.017765700817108154 0.13749997317790985 0.0091861281543970108
      vertex -0.018595784902572632 0.13749997317790985 0.0073621291667222977
      vertex -0.018595786765217781 0.062499977648258209 0.0073618725873529911
    endloop
  endfacet
  facet normal -0.9101795607610853 -1.3970171718115667e-06 0.41421391474793084
    outer loop
      vertex -0.017765700817108154 0.13749997317790985 0.0091861281543970108
      vertex -0.018595786765217781 0.062499977648258209 0.0073618725873529911
      vertex -0.017765702679753304 0.062499973922967911 0.0091858711093664169
    endloop
  endfacet
  facet normal -0.96106369286551163 -9.4533061918349675e-07 0.27632694087767085
    outer loop
      vertex -0.018595784902572632 0.13749997317790985 0.0073621291667222977
      vertex -0.019666124135255814 0.13749998807907104 0.0036394947674125433
      vertex -0.019666124135255814 0.062499992549419403 0.0036392381880432367
    endloop
  endfacet
  facet normal -0.9610638205702482 -9.2146082009488003e-07 0.27632649672094184
    outer loop
      vertex -0.018595784902572632 0.13749997317790985 0.0073621291667222977
      vertex -0.019666124135255814 0.062499992549419403 0.0036392381880432367
      vertex -0.018595786765217781 0.062499977648258209 0.0073618725873529911
    endloop
  endfacet
  facet normal -0.99581770067105613 -2.8788833831859299e-07 0.091362503414300147
    outer loop
      vertex -0.019666124135255814 0.13749998807907104 0.0036394947674125433
      vertex -0.020000012591481209 0.13750000298023224 2.3333817011916835e-07
      vertex -0.020000014454126358 0.062500007450580597 -2.3293141637736881e-08
    endloop
  endfacet
  facet normal -0.99581765441877623 -3.1255819001682471e-07 0.091363007545666008
    outer loop
      vertex -0.019666124135255814 0.13749998807907104 0.0036394947674125433
      vertex -0.020000014454126358 0.062500007450580597 -2.3293141637736881e-08
      vertex -0.019666124135255814 0.062499992549419403 0.0036392381880432367
    endloop
  endfacet
  facet normal -0.99581751324984435 3.3757845020040776e-07 -0.091364546213408074
    outer loop
      vertex -0.020000012591481209 0.13750000298023224 2.3333817011916835e-07
      vertex -0.019666116684675217 0.13750001788139343 -0.0036390272434800863
      vertex -0.019666118547320366 0.062500014901161194 -0.0036392840556800365
    endloop
  endfacet
  facet normal -0.99581751366295479 3.3735811142336419e-07 -0.091364541710758751
    outer loop
      vertex -0.020000012591481209 0.13750000298023224 2.3333817011916835e-07
      vertex -0.019666118547320366 0.062500014901161194 -0.0036392840556800365
      vertex -0.020000014454126358 0.062500007450580597 -2.3293141637736881e-08
    endloop
  endfacet
  facet normal -0.96106326385236995 9.692038932429911e-07 -0.27632843297874776
    outer loop
      vertex -0.019666116684675217 0.13750001788139343 -0.0036390272434800863
      vertex -0.018595771864056587 0.13750003278255463 -0.0073616593144834042
      vertex -0.018595773726701736 0.062500029802322388 -0.0073619158938527107
    endloop
  endfacet
  facet normal -0.96106325926257641 9.700617841142513e-07 -0.27632844894193048
    outer loop
      vertex -0.019666116684675217 0.13750001788139343 -0.0036390272434800863
      vertex -0.018595773726701736 0.062500029802322388 -0.0073619158938527107
      vertex -0.019666118547320366 0.062500014901161194 -0.0036392840556800365
    endloop
  endfacet
  facet normal -0.91017870045388649 1.4422328092861767e-06 -0.41421580515233153
    outer loop
      vertex -0.018595771864056587 0.13750003278255463 -0.0073616593144834042
      vertex -0.017765684053301811 0.13750003278255463 -0.0091856559738516808
      vertex -0.01776568591594696 0.062500037252902985 -0.0091859130188822746
    endloop
  endfacet
  facet normal -0.91017874032424551 1.4396605771884657e-06 -0.41421571754304193
    outer loop
      vertex -0.018595771864056587 0.13750003278255463 -0.0073616593144834042
      vertex -0.01776568591594696 0.062500037252902985 -0.0091859130188822746
      vertex -0.018595773726701736 0.062500029802322388 -0.0073619158938527107
    endloop
  endfacet
  facet normal -0.86375842372746126 1.7484724828480354e-06 -0.50390612760393616
    outer loop
      vertex -0.017765684053301811 0.13750003278255463 -0.0091856559738516808
      vertex -0.016739912331104279 0.13750004768371582 -0.010943957604467869
      vertex -0.016739914193749428 0.062500044703483582 -0.010944214649498463
    endloop
  endfacet
  facet normal -0.86375842372423661 1.7484726565620457e-06 -0.50390612760946385
    outer loop
      vertex -0.017765684053301811 0.13750003278255463 -0.0091856559738516808
      vertex -0.016739914193749428 0.062500044703483582 -0.010944214649498463
      vertex -0.01776568591594696 0.062500037252902985 -0.0091859130188822746
    endloop
  endfacet
  facet normal -0.80774278843649405 2.0305242765398182e-06 -0.58953506064076844
    outer loop
      vertex -0.016739912331104279 0.13750004768371582 -0.010943957604467869
      vertex -0.015527063980698586 0.13750004768371582 -0.012605723924934864
      vertex -0.01552706491202116 0.062500044703483582 -0.012605980969965458
    endloop
  endfacet
  facet normal -0.80774257286763607 2.0405555376363983e-06 -0.58953535599911855
    outer loop
      vertex -0.016739912331104279 0.13750004768371582 -0.010943957604467869
      vertex -0.01552706491202116 0.062500044703483582 -0.012605980969965458
      vertex -0.016739914193749428 0.062500044703483582 -0.010944214649498463
    endloop
  endfacet
  facet normal -0.74272288969796907 2.2958024836439008e-06 -0.66959891660114557
    outer loop
      vertex -0.015527063980698586 0.13750004768371582 -0.012605723924934864
      vertex -0.014142134226858616 0.13750004768371582 -0.014141895808279514
      vertex -0.01414213515818119 0.062500052154064178 -0.014142151921987534
    endloop
  endfacet
  facet normal -0.74272268781257289 2.3041178547078424e-06 -0.66959914053346736
    outer loop
      vertex -0.015527063980698586 0.13750004768371582 -0.012605723924934864
      vertex -0.01414213515818119 0.062500052154064178 -0.014142151921987534
      vertex -0.01552706491202116 0.062500044703483582 -0.012605980969965458
    endloop
  endfacet
  facet normal -0.66959725122182456 2.5538295634750908e-06 -0.74272439110995603
    outer loop
      vertex -0.014142134226858616 0.13750004768371582 -0.014141895808279514
      vertex -0.012605959549546242 0.13750006258487701 -0.015526821836829185
      vertex -0.012605960480868816 0.062500059604644775 -0.015527078881859779
    endloop
  endfacet
  facet normal -0.66959749960972059 2.5446061751198071e-06 -0.74272416717778555
    outer loop
      vertex -0.014142134226858616 0.13750004768371582 -0.014141895808279514
      vertex -0.012605960480868816 0.062500059604644775 -0.015527078881859779
      vertex -0.01414213515818119 0.062500052154064178 -0.014142151921987534
    endloop
  endfacet
  facet normal -0.58953323249779965 2.7756753342644924e-06 -0.80774412271027429
    outer loop
      vertex -0.012605959549546242 0.13750006258487701 -0.015526821836829185
      vertex -0.010944190435111523 0.13750006258487701 -0.01673966646194458
      vertex -0.010944191366434097 0.062500059604644775 -0.016739923506975174
    endloop
  endfacet
  facet normal -0.58953323249779965 2.7756753342644924e-06 -0.80774412271027429
    outer loop
      vertex -0.012605959549546242 0.13750006258487701 -0.015526821836829185
      vertex -0.010944191366434097 0.062500059604644775 -0.016739923506975174
      vertex -0.012605960480868816 0.062500059604644775 -0.015527078881859779
    endloop
  endfacet
  facet normal -0.50390416486800749 2.9665922048382202e-06 -0.86375956875734539
    outer loop
      vertex -0.010944190435111523 0.13750006258487701 -0.01673966646194458
      vertex -0.0091858860105276108 0.13750006258487701 -0.017765434458851814
      vertex -0.0091858869418501854 0.062500067055225372 -0.017765691503882408
    endloop
  endfacet
  facet normal -0.5039041648773861 2.9665919101151391e-06 -0.86375956875187399
    outer loop
      vertex -0.010944190435111523 0.13750006258487701 -0.01673966646194458
      vertex -0.0091858869418501854 0.062500067055225372 -0.017765691503882408
      vertex -0.010944191366434097 0.062500059604644775 -0.016739923506975174
    endloop
  endfacet
  facet normal -0.41421382714461019 3.1019677630022846e-06 -0.91017960062429049
    outer loop
      vertex -0.0091858860105276108 0.13750006258487701 -0.017765434458851814
      vertex -0.0073618870228528976 0.13750006258487701 -0.018595518544316292
      vertex -0.0073618879541754723 0.062500067055225372 -0.018595773726701736
    endloop
  endfacet
  facet normal -0.41421305715104989 3.1245735106647158e-06 -0.91017995104035243
    outer loop
      vertex -0.0091858860105276108 0.13750006258487701 -0.017765434458851814
      vertex -0.0073618879541754723 0.062500067055225372 -0.018595773726701736
      vertex -0.0091858869418501854 0.062500067055225372 -0.017765691503882408
    endloop
  endfacet
  facet normal -0.27632646480892775 3.2733853327591482e-06 -0.96106382974050442
    outer loop
      vertex -0.0073618870228528976 0.13750006258487701 -0.018595518544316292
      vertex -0.003639252157881856 0.13750007748603821 -0.019665855914354324
      vertex -0.0036392530892044306 0.062500074505805969 -0.019666111096739769
    endloop
  endfacet
  facet normal -0.27632646480287659 3.2733856579466286e-06 -0.96106382974224425
    outer loop
      vertex -0.0073618870228528976 0.13750006258487701 -0.018595518544316292
      vertex -0.0036392530892044306 0.062500074505805969 -0.019666111096739769
      vertex -0.0073618879541754723 0.062500067055225372 -0.018595773726701736
    endloop
  endfacet
  facet normal -0.091361975843667093 3.4141187114592759e-06 -0.99581774906771214
    outer loop
      vertex -0.003639252157881856 0.13750007748603821 -0.019665855914354324
      vertex 1.0160961849692285e-08 0.13750007748603821 -0.01999974250793457
      vertex 9.1878025187952517e-09 0.062500074505805969 -0.019999999552965164
    endloop
  endfacet
  facet normal -0.09136248230974385 3.3893361954548753e-06 -0.99581770260159286
    outer loop
      vertex -0.003639252157881856 0.13750007748603821 -0.019665855914354324
      vertex 9.1878025187952517e-09 0.062500074505805969 -0.019999999552965164
      vertex -0.0036392530892044306 0.062500074505805969 -0.019666111096739769
    endloop
  endfacet
  facet normal 0.09136153472336099 3.4117988926687235e-06 -0.99581778953850364
    outer loop
      vertex 1.0160961849692285e-08 0.13750007748603821 -0.01999974250793457
      vertex 0.0036391480825841427 0.13750007748603821 -0.019665868952870369
      vertex 0.0036391471512615681 0.062500074505805969 -0.019666125997900963
    endloop
  endfacet
  facet normal 0.09136153368180501 3.4117479294082771e-06 -0.99581778963406176
    outer loop
      vertex 1.0160961849692285e-08 0.13750007748603821 -0.01999974250793457
      vertex 0.0036391471512615681 0.062500074505805969 -0.019666125997900963
      vertex 9.1878025187952517e-09 0.062500074505805969 -0.019999999552965164
    endloop
  endfacet
  facet normal 0.2763189832079046 3.2903987606329094e-06 -0.96106598082968409
    outer loop
      vertex 0.0036391480825841427 0.13750007748603821 -0.019665868952870369
      vertex 0.0073616588488221169 0.13750006258487701 -0.018595598638057709
      vertex 0.0073616579174995422 0.062500067055225372 -0.018595855683088303
    endloop
  endfacet
  facet normal 0.27631898320182174 3.2903984337672433e-06 -0.96106598083143313
    outer loop
      vertex 0.0036391480825841427 0.13750007748603821 -0.019665868952870369
      vertex 0.0073616579174995422 0.062500067055225372 -0.018595855683088303
      vertex 0.0036391471512615681 0.062500074505805969 -0.019666125997900963
    endloop
  endfacet
  facet normal 0.41420260418696347 3.1143028506656802e-06 -0.91018470799889784
    outer loop
      vertex 0.0073616588488221169 0.13750006258487701 -0.018595598638057709
      vertex 0.0091856028884649277 0.13750006258487701 -0.01776556670665741
      vertex 0.0091856019571423531 0.062500067055225372 -0.017765823751688004
    endloop
  endfacet
  facet normal 0.41420260418696347 3.1143028506656802e-06 -0.91018470799889784
    outer loop
      vertex 0.0073616588488221169 0.13750006258487701 -0.018595598638057709
      vertex 0.0091856019571423531 0.062500067055225372 -0.017765823751688004
      vertex 0.0073616579174995422 0.062500067055225372 -0.018595855683088303
    endloop
  endfacet
  facet normal 0.50388934536161278 2.9326552143060379e-06 -0.86376821406118243
    outer loop
      vertex 0.0091856028884649277 0.13750006258487701 -0.01776556670665741
      vertex 0.010943861678242683 0.13750006258487701 -0.016739865764975548
      vertex 0.010943860746920109 0.062500059604644775 -0.016740120947360992
    endloop
  endfacet
  facet normal 0.50389002808472327 2.9541060490982423e-06 -0.86376781578619277
    outer loop
      vertex 0.0091856028884649277 0.13750006258487701 -0.01776556670665741
      vertex 0.010943860746920109 0.062500059604644775 -0.016740120947360992
      vertex 0.0091856019571423531 0.062500067055225372 -0.017765823751688004
    endloop
  endfacet
  facet normal 0.58951736354748419 2.761074009397171e-06 -0.80775570444807121
    outer loop
      vertex 0.010943861678242683 0.13750006258487701 -0.016739865764975548
      vertex 0.012605597265064716 0.13750006258487701 -0.015527095645666122
      vertex 0.012605596333742142 0.062500059604644775 -0.015527352690696716
    endloop
  endfacet
  facet normal 0.58951677279081904 2.7410146545478157e-06 -0.80775613559463888
    outer loop
      vertex 0.010943861678242683 0.13750006258487701 -0.016739865764975548
      vertex 0.012605596333742142 0.062500059604644775 -0.015527352690696716
      vertex 0.010943860746920109 0.062500059604644775 -0.016740120947360992
    endloop
  endfacet
  facet normal 0.66957962206843624 2.5372548771778815e-06 -0.74274028415338567
    outer loop
      vertex 0.012605597265064716 0.13750006258487701 -0.015527095645666122
      vertex 0.014141753315925598 0.13750004768371582 -0.014142252504825592
      vertex 0.014141752384603024 0.062500052154064178 -0.014142509549856186
    endloop
  endfacet
  facet normal 0.66957962206164756 2.5372546251459318e-06 -0.74274028415950588
    outer loop
      vertex 0.012605597265064716 0.13750006258487701 -0.015527095645666122
      vertex 0.014141752384603024 0.062500052154064178 -0.014142509549856186
      vertex 0.012605596333742142 0.062500059604644775 -0.015527352690696716
    endloop
  endfacet
  facet normal 0.74270458290492591 2.2857411874587289e-06 -0.66961922204100122
    outer loop
      vertex 0.014141753315925598 0.13750004768371582 -0.014142252504825592
      vertex 0.015526680275797844 0.13750004768371582 -0.012606168165802956
      vertex 0.015526679344475269 0.062500044703483582 -0.012606425210833549
    endloop
  endfacet
  facet normal 0.7427045829104395 2.2857414145056999e-06 -0.66961922203488555
    outer loop
      vertex 0.014141753315925598 0.13750004768371582 -0.014142252504825592
      vertex 0.015526679344475269 0.062500044703483582 -0.012606425210833549
      vertex 0.014141752384603024 0.062500052154064178 -0.014142509549856186
    endloop
  endfacet
  facet normal 0.80772482281210511 2.0132572468187251e-06 -0.58955967518911956
    outer loop
      vertex 0.015526680275797844 0.13750004768371582 -0.012606168165802956
      vertex 0.016739541664719582 0.13750004768371582 -0.010944490320980549
      vertex 0.016739541664719582 0.062500037252902985 -0.010944746434688568
    endloop
  endfacet
  facet normal 0.80772476458870346 2.0105486260119957e-06 -0.58955975495795265
    outer loop
      vertex 0.015526680275797844 0.13750004768371582 -0.012606168165802956
      vertex 0.016739541664719582 0.062500037252902985 -0.010944746434688568
      vertex 0.015526679344475269 0.062500044703483582 -0.012606425210833549
    endloop
  endfacet
  facet normal 0.86374159514408411 1.7271198429673886e-06 -0.50393497280400201
    outer loop
      vertex 0.016739541664719582 0.13750004768371582 -0.010944490320980549
      vertex 0.017765343189239502 0.13750003278255463 -0.0091862725093960762
      vertex 0.017765343189239502 0.062500037252902985 -0.0091865295544266701
    endloop
  endfacet
  facet normal 0.86374147894991748 1.7208625005603494e-06 -0.50393517196009197
    outer loop
      vertex 0.016739541664719582 0.13750004768371582 -0.010944490320980549
      vertex 0.017765343189239502 0.062500037252902985 -0.0091865295544266701
      vertex 0.016739541664719582 0.062500037252902985 -0.010944746434688568
    endloop
  endfacet
  facet normal 0.91016359157601445 1.4171699163624851e-06 -0.41424900309770379
    outer loop
      vertex 0.017765343189239502 0.13750003278255463 -0.0091862725093960762
      vertex 0.018595475703477859 0.13750003278255463 -0.0073623540811240673
      vertex 0.018595475703477859 0.062500029802322388 -0.0073626106604933739
    endloop
  endfacet
  facet normal 0.91016363145377555 1.4197417533324201e-06 -0.41424891548060833
    outer loop
      vertex 0.017765343189239502 0.13750003278255463 -0.0091862725093960762
      vertex 0.018595475703477859 0.062500029802322388 -0.0073626106604933739
      vertex 0.017765343189239502 0.062500037252902985 -0.0091865295544266701
    endloop
  endfacet
  facet normal 0.9610521049507732 9.2160040602778531e-07 -0.27636724040457294
    outer loop
      vertex 0.018595475703477859 0.13750003278255463 -0.0073623540811240673
      vertex 0.019665947183966637 0.13750001788139343 -0.0036398475058376789
      vertex 0.019665945321321487 0.062500014901161194 -0.0036401040852069855
    endloop
  endfacet
  facet normal 0.9610522326754477 9.4546687281329805e-07 -0.27636679624847005
    outer loop
      vertex 0.018595475703477859 0.13750003278255463 -0.0073623540811240673
      vertex 0.019665945321321487 0.062500014901161194 -0.0036401040852069855
      vertex 0.018595475703477859 0.062500029802322388 -0.0073626106604933739
    endloop
  endfacet
  facet normal 0.99581353800014116 3.1277493541031866e-07 -0.091407863641722514
    outer loop
      vertex 0.019665947183966637 0.13750001788139343 -0.0036398475058376789
      vertex 0.019999995827674866 0.13750000298023224 -6.6211742932864581e-07
      vertex 0.019999995827674866 0.0625 -9.1874875352004892e-07
    endloop
  endfacet
  facet normal 0.99581349148682585 2.8798205319748626e-07 -0.091408370364723296
    outer loop
      vertex 0.019665947183966637 0.13750001788139343 -0.0036398475058376789
      vertex 0.019999995827674866 0.0625 -9.1874875352004892e-07
      vertex 0.019665945321321487 0.062500014901161194 -0.0036401040852069855
    endloop
  endfacet
  facet normal -1.2325987277275093e-05 0.99999999989125943 8.0963624937563406e-06
    outer loop
      vertex -0.01414213515818119 1.0636206865310669 0.014148970134556293
      vertex -0.018595747649669647 1.0636208057403564 -0.007355064619332552
      vertex -0.018595760688185692 1.0636206865310669 0.0073687238618731499
    endloop
  endfacet
  facet normal -5.5368754685036956e-06 0.99999999994914446 8.4293645968931463e-06
    outer loop
      vertex -0.0073618968017399311 1.0636206865310669 0.018602607771754265
      vertex -0.014142109081149101 1.063620924949646 -0.014135301113128662
      vertex -0.01414213515818119 1.0636206865310669 0.014148970134556293
    endloop
  endfacet
  facet normal -1.2227804975646996e-06 0.99999999997870481 6.4105599304644385e-06
    outer loop
      vertex -2.0884358686856785e-09 1.0636206865310669 0.020006850361824036
      vertex -0.007361861877143383 1.063620924949646 -0.018588922917842865
      vertex -0.0073618968017399311 1.0636206865310669 0.018602607771754265
    endloop
  endfacet
  facet normal 4.2446359916799028e-05 0.99999999906637738 8.0964109902282241e-06
    outer loop
      vertex -0.018595747649669647 1.0636208057403564 -0.007355064619332552
      vertex -0.019999988377094269 1.0636208057403564 6.82787822370301e-06
      vertex -0.018595760688185692 1.0636206865310669 0.0073687238618731499
    endloop
  endfacet
  facet normal -1.3933833115538032e-05 0.99999999986739718 8.4293568545255913e-06
    outer loop
      vertex -0.014142109081149101 1.063620924949646 -0.014135301113128662
      vertex -0.018595747649669647 1.0636208057403564 -0.007355064619332552
      vertex -0.01414213515818119 1.0636206865310669 0.014148970134556293
    endloop
  endfacet
  facet normal 4.210795174802662e-06 0.99999999997058719 6.4105650327955133e-06
    outer loop
      vertex -0.014142109081149101 1.063620924949646 -0.014135301113128662
      vertex -0.0073618968017399311 1.0636206865310669 0.018602607771754265
      vertex -0.007361861877143383 1.063620924949646 -0.018588922917842865
    endloop
  endfacet
  facet normal 1.1369134584040715e-06 0.99999999998159028 5.9604656695841535e-06
    outer loop
      vertex -0.007361861877143383 1.063620924949646 -0.018588922917842865
      vertex -2.0884358686856785e-09 1.0636206865310669 0.020006850361824036
      vertex 3.516780466839009e-08 1.063620924949646 -0.019993148744106293
    endloop
  endfacet
  facet normal 5.5369775833850724e-06 0.9999999999491449 8.4292469707305655e-06
    outer loop
      vertex 0.014142109081149101 1.0636206865310669 0.01414880808442831
      vertex 0.014141778461635113 1.063620924949646 -0.01413565780967474
      vertex 0.0073618777096271515 1.0636206865310669 0.018602585420012474
    endloop
  endfacet
  facet normal 1.2325943228050603e-05 0.99999999989126265 8.0960268260212916e-06
    outer loop
      vertex 0.018595501780509949 1.0636208057403564 -0.0073557593859732151
      vertex 0.014142109081149101 1.0636206865310669 0.01414880808442831
      vertex 0.018595762550830841 1.0636206865310669 0.0073682623915374279
    endloop
  endfacet
  facet normal -4.2439829539182616e-05 0.99999999906664971 8.0969967505468529e-06
    outer loop
      vertex 0.018595762550830841 1.0636206865310669 0.0073682623915374279
      vertex 0.020000021904706955 1.0636208057403564 5.9324229368939996e-06
      vertex 0.018595501780509949 1.0636208057403564 -0.0073557593859732151
    endloop
  endfacet
  facet normal -1.1368865395564101e-06 0.99999999998159028 5.9604635517531152e-06
    outer loop
      vertex 3.516780466839009e-08 1.063620924949646 -0.019993148744106293
      vertex -2.0884358686856785e-09 1.0636206865310669 0.020006850361824036
      vertex 0.0073616839945316315 1.063620924949646 -0.018589003011584282
    endloop
  endfacet
  facet normal -4.2106337757893307e-06 0.99999999997058775 6.4105730573024095e-06
    outer loop
      vertex 0.0073618777096271515 1.0636206865310669 0.018602585420012474
      vertex 0.014141778461635113 1.063620924949646 -0.01413565780967474
      vertex 0.0073616839945316315 1.063620924949646 -0.018589003011584282
    endloop
  endfacet
  facet normal 1.3934524522246433e-05 0.99999999986738941 8.4291488104050335e-06
    outer loop
      vertex 0.014142109081149101 1.0636206865310669 0.01414880808442831
      vertex 0.018595501780509949 1.0636208057403564 -0.0073557593859732151
      vertex 0.014141778461635113 1.063620924949646 -0.01413565780967474
    endloop
  endfacet
  facet normal 1.2227995440006122e-06 0.99999999997870481 6.410544756921499e-06
    outer loop
      vertex 0.0073618777096271515 1.0636206865310669 0.018602585420012474
      vertex 0.0073616839945316315 1.063620924949646 -0.018589003011584282
      vertex -2.0884358686856785e-09 1.0636206865310669 0.020006850361824036
    endloop
  endfacet
endsolid OBJECT
